# xmcd
#
# Track frame offsets:
#	150
#	21929
#	42070
#	63916
#	85200
#	104638
#	126457
#	145625
#	166105
#	190020
#
# Disc length: 2745 seconds
#
# Revision: 12
# Processed by: cddbd v1.5.2PL0 Copyright (c) Steve Scherf et al.
# Submitted via: EasyCDDAExtractor 15.3.0.1
#
DISCID=800ab70a
DTITLE=Victor Manuelle - Instinto Y Deseo
DYEAR=2001
DGENRE=Latin
TTITLE0=No Eres La Mujer
TTITLE1=Me Da Lo Mismo
TTITLE2=Lejos
TTITLE3=Como Se Lo Explico Al Corazon
TTITLE4=Quisiera Inventar
TTITLE5=Te Voy A Encontrar
TTITLE6=Instinto Y Deseo (Salsa Version)
TTITLE7=Ni Un Dia Mas
TTITLE8=Asi Fue
TTITLE9=Instinto Y Deseo (Pop Version)
EXTD=YEAR: 2001
EXTT0=
EXTT1=
EXTT2=
EXTT3=
EXTT4=
EXTT5=
EXTT6=
EXTT7=
EXTT8=
EXTT9=
PLAYORDER=
